<svg preserveAspectRatio="none" width="100%" height="100%" overflow="visible" style="display: block;" viewBox="0 0 20 20" fill="none" xmlns="http://www.w3.org/2000/svg">
<g id="plane" clip-path="url(#clip0_0_13)">
<path id="Icon" d="M14.7873 2.34401C15.5913 1.51361 16.9196 1.50286 17.7369 2.32015C18.5318 3.11505 18.5466 4.39919 17.7703 5.2122L15.4547 7.637C15.2732 7.82706 15.1825 7.92209 15.1265 8.03339C15.077 8.13192 15.0476 8.23929 15.0399 8.34929C15.0312 8.47354 15.0607 8.60158 15.1198 8.85765L16.5597 15.0973C16.6204 15.3601 16.6507 15.4915 16.6409 15.6187C16.6322 15.7312 16.6008 15.8408 16.5485 15.9408C16.4895 16.0538 16.3941 16.1491 16.2033 16.3399L15.8944 16.6489C15.3892 17.154 15.1367 17.4065 14.8782 17.4523C14.6525 17.4922 14.4203 17.4374 14.2362 17.3007C14.0255 17.1442 13.9125 16.8054 13.6866 16.1277L12.0118 11.1033L9.22408 13.8911C9.05767 14.0575 8.97447 14.1407 8.91881 14.2387C8.8695 14.3255 8.8362 14.4204 8.82047 14.519C8.80272 14.6303 8.81572 14.7472 8.84171 14.9811L8.9948 16.3589C9.02079 16.5928 9.03378 16.7098 9.01603 16.8211C9.00031 16.9196 8.967 17.0146 8.91769 17.1014C8.86204 17.1994 8.77883 17.2826 8.61243 17.449L8.44784 17.6136C8.05363 18.0078 7.85652 18.2049 7.63748 18.262C7.44535 18.3121 7.24167 18.2919 7.0631 18.2051C6.85951 18.1062 6.70488 17.8742 6.39563 17.4104L5.0887 15.45C5.03345 15.3671 5.00582 15.3257 4.97375 15.2881C4.94526 15.2547 4.91418 15.2236 4.88079 15.1951C4.84321 15.163 4.80177 15.1354 4.7189 15.0802L2.75849 13.7732C2.29462 13.464 2.06268 13.3094 1.96375 13.1058C1.87698 12.9272 1.85681 12.7235 1.90688 12.5314C1.96396 12.3123 2.16107 12.1152 2.55529 11.721L2.71987 11.5564C2.88628 11.39 2.96948 11.3068 3.06746 11.2512C3.15427 11.2019 3.24922 11.1686 3.3478 11.1528C3.45908 11.1351 3.57603 11.1481 3.80992 11.1741L5.18775 11.3272C5.42164 11.3531 5.53859 11.3661 5.64987 11.3484C5.74845 11.3327 5.84341 11.2994 5.93021 11.2501C6.02819 11.1944 6.11139 11.1112 6.2778 10.9448L9.06557 8.15702L4.04117 6.48222C3.36348 6.25632 3.02463 6.14337 2.86814 5.93262C2.73148 5.74859 2.67667 5.51639 2.71659 5.29067C2.76232 5.03218 3.01488 4.77962 3.52 4.2745L3.82897 3.96552C4.01972 3.77478 4.11509 3.67941 4.22808 3.62033C4.32809 3.56804 4.43768 3.53662 4.5502 3.52795C4.67733 3.51816 4.80875 3.54849 5.07159 3.60914L11.2875 5.04359C11.5458 5.1032 11.675 5.133 11.7997 5.12414C11.9201 5.11558 12.0371 5.08097 12.1428 5.0227C12.2523 4.96236 12.3445 4.86714 12.5289 4.67669L14.7873 2.34401Z" stroke="var(--stroke-0, #5B8BF5)" stroke-width="2" stroke-linecap="round" stroke-linejoin="round"/>
</g>
<defs>
<clipPath id="clip0_0_13">
<rect width="20" height="20" fill="white"/>
</clipPath>
</defs>
</svg>
